<?xml version="1.0" encoding="utf-8"?>
<!-- Generator: Adobe Illustrator 19.2.1, SVG Export Plug-In . SVG Version: 6.00 Build 0)  -->
<svg version="1.1" id="Layer_1" xmlns="http://www.w3.org/2000/svg" xmlns:xlink="http://www.w3.org/1999/xlink" x="0px" y="0px"
	 viewBox="0 0 19.7 18.9" style="enable-background:new 0 0 19.7 18.9;" xml:space="preserve">
<style type="text/css">
	.st0{fill:#FE3131;}
</style>
<g>
	<path class="st0" d="M5.1,10.2c0,0.4-0.4,0.8-0.8,0.8H0.8C0.4,11,0,10.6,0,10.2V2.4c0-0.4,0.4-0.8,0.8-0.8h3.5
		c0.4,0,0.8,0.4,0.8,0.8V10.2z M3.1,3.9c0-0.4-0.4-0.8-0.8-0.8c-0.4,0-0.8,0.3-0.8,0.8c0,0.4,0.3,0.8,0.8,0.8
		C2.8,4.7,3.1,4.4,3.1,3.9z M19,8.4c0.1-0.4,0.2-0.8,0.2-0.9c0-0.6-0.2-1.2-0.5-1.7c0.1-0.5,0.1-0.9,0-1.4c-0.1-0.5-0.4-0.9-0.7-1.2
		C18,2.3,17.8,1.5,17.4,1C16.8,0.3,16,0,14.9,0c0,0-0.2,0-0.4,0h-0.9h-0.2c-1.8,0-3.4,0.6-4.7,1C7.8,1.3,7.1,1.6,6.7,1.6
		c-0.4,0-0.8,0.4-0.8,0.8v7.9c0,0.4,0.3,0.7,0.7,0.8c0.5,0,1.6,1.5,2.2,2.2c0.4,0.6,0.9,1.1,1.2,1.5c0.5,0.5,0.6,1.2,0.8,1.9
		c0.1,0.7,0.3,1.5,0.8,2c0.1,0.1,0.3,0.2,0.6,0.2c2.8,0,2.8-2.2,2.8-3.1c0-1-0.4-1.7-0.7-2.4c-0.1-0.3-0.3-0.4-0.4-0.8h3.4
		c1.3,0,2.3-1.1,2.4-2.4C19.7,9.6,19.4,8.9,19,8.4z"/>
</g>
</svg>
