<?xml version="1.0" encoding="utf-8"?>
<!-- Generator: Adobe Illustrator 19.2.1, SVG Export Plug-In . SVG Version: 6.00 Build 0)  -->
<svg version="1.1" id="Layer_1" xmlns="http://www.w3.org/2000/svg" xmlns:xlink="http://www.w3.org/1999/xlink" x="0px" y="0px"
	 viewBox="0 0 19.7 18.9" style="enable-background:new 0 0 19.7 18.9;" xml:space="preserve">
<style type="text/css">
	.st0{fill:#60D245;}
</style>
<g>
	<path class="st0" d="M5.1,16.5c0,0.4-0.4,0.8-0.8,0.8H0.8c-0.4,0-0.8-0.4-0.8-0.8V8.6c0-0.4,0.4-0.8,0.8-0.8h3.5
		c0.4,0,0.8,0.4,0.8,0.8V16.5z M2.4,14.2c-0.4,0-0.8,0.4-0.8,0.8c0,0.4,0.3,0.8,0.8,0.8c0.4,0,0.8-0.3,0.8-0.8
		C3.1,14.5,2.8,14.2,2.4,14.2z M19,10.5c0.1,0.4,0.2,0.8,0.2,0.9c0,0.6-0.2,1.2-0.5,1.7c0.1,0.5,0.1,0.9,0,1.4
		c-0.1,0.5-0.4,0.9-0.7,1.2c0.1,0.9-0.1,1.7-0.6,2.2c-0.5,0.6-1.3,0.9-2.4,1c0,0-0.2,0-0.4,0h-0.9h-0.2c-1.8,0-3.4-0.6-4.7-1
		c-0.8-0.3-1.5-0.5-1.9-0.5c-0.4,0-0.8-0.4-0.8-0.8V8.6c0-0.4,0.3-0.7,0.7-0.8c0.5,0,1.6-1.5,2.2-2.2c0.4-0.6,0.9-1.1,1.2-1.5
		c0.5-0.5,0.6-1.2,0.8-1.9c0.1-0.7,0.3-1.5,0.8-2C11.8,0.1,12,0,12.2,0c2.8,0,2.8,2.2,2.8,3.1c0,1-0.4,1.7-0.7,2.4
		c-0.1,0.3-0.3,0.4-0.4,0.8h3.4c1.3,0,2.4,1.1,2.4,2.4C19.7,9.3,19.4,10,19,10.5z"/>
</g>
</svg>
