<?xml version="1.0" encoding="utf-8"?>
<!-- Generator: Adobe Illustrator 19.2.1, SVG Export Plug-In . SVG Version: 6.00 Build 0)  -->
<svg version="1.1" id="Layer_1" xmlns="http://www.w3.org/2000/svg" xmlns:xlink="http://www.w3.org/1999/xlink" x="0px" y="0px"
	 viewBox="0 0 14.6 14.6" style="enable-background:new 0 0 14.6 14.6;" xml:space="preserve">
<style type="text/css">
	.st0{fill:#F84157;}
</style>
<g>
	<path class="st0" d="M14.2,12.6l-1.7,1.7c-0.2,0.2-0.5,0.3-0.8,0.3c-0.3,0-0.6-0.1-0.8-0.3l-3.6-3.6l-3.6,3.6
		c-0.2,0.2-0.5,0.3-0.8,0.3c-0.3,0-0.6-0.1-0.8-0.3l-1.7-1.7C0.1,12.4,0,12,0,11.7c0-0.3,0.1-0.6,0.3-0.8L4,7.3L0.3,3.7
		C0.1,3.5,0,3.2,0,2.8C0,2.5,0.1,2.2,0.3,2L2,0.3C2.2,0.1,2.5,0,2.8,0c0.3,0,0.6,0.1,0.8,0.3L7.3,4l3.6-3.6C11.1,0.1,11.4,0,11.7,0
		c0.3,0,0.6,0.1,0.8,0.3L14.2,2c0.2,0.2,0.3,0.5,0.3,0.8c0,0.3-0.1,0.6-0.3,0.8l-3.6,3.6l3.6,3.6c0.2,0.2,0.3,0.5,0.3,0.8
		C14.6,12,14.5,12.4,14.2,12.6z"/>
</g>
</svg>
