<?xml version="1.0" encoding="utf-8"?>
<!-- Generator: Adobe Illustrator 19.2.1, SVG Export Plug-In . SVG Version: 6.00 Build 0)  -->
<svg version="1.1" id="Layer_1" xmlns="http://www.w3.org/2000/svg" xmlns:xlink="http://www.w3.org/1999/xlink" x="0px" y="0px"
	 viewBox="0 0 25.1 25.1" style="enable-background:new 0 0 25.1 25.1;" xml:space="preserve">
<style type="text/css">
	.st0{fill:#EC5E7C;}
</style>
<g>
	<path class="st0" d="M24.6,22.3c-0.4,0.9-1.4,1.4-2.2,1.9c-1.1,0.6-2.1,0.9-3.3,0.9c-1.7,0-3.2-0.7-4.7-1.2
		c-1.1-0.4-2.1-0.9-3.1-1.5c-3-1.9-6.7-5.5-8.6-8.6c-0.6-1-1.1-2-1.5-3.1C0.7,9.2,0,7.7,0,6.1c0-1.2,0.3-2.3,0.9-3.3
		c0.4-0.8,1-1.8,1.9-2.2C3.4,0.3,4.6,0,5.3,0c0.1,0,0.3,0,0.4,0.1c0.4,0.1,0.8,1,0.9,1.4c0.6,1,1.1,2.1,1.7,3.1
		c0.3,0.5,0.8,1,0.8,1.6c0,1.1-3.2,2.7-3.2,3.6c0,0.5,0.4,1.1,0.7,1.5c1.8,3.2,4.1,5.5,7.3,7.3c0.4,0.3,1.1,0.7,1.5,0.7
		c1,0,2.6-3.2,3.6-3.2c0.6,0,1.1,0.5,1.6,0.8c1,0.6,2,1.1,3.1,1.7c0.4,0.2,1.2,0.6,1.4,0.9c0.1,0.1,0.1,0.3,0.1,0.4
		C25.1,20.5,24.9,21.7,24.6,22.3z"/>
</g>
</svg>
