<?xml version="1.0" encoding="utf-8"?>
<!-- Generator: Adobe Illustrator 19.2.1, SVG Export Plug-In . SVG Version: 6.00 Build 0)  -->
<svg version="1.1" id="Layer_1" xmlns="http://www.w3.org/2000/svg" xmlns:xlink="http://www.w3.org/1999/xlink" x="0px" y="0px"
	 viewBox="0 0 45 45.5" style="enable-background:new 0 0 45 45.5;" xml:space="preserve">
<style type="text/css">
	.st0{fill-rule:evenodd;clip-rule:evenodd;}
</style>
<g>
	<g>
		<path class="st0" d="M44.3,41.2l-9.6-9.6c2.7-3.3,4.3-7.6,4.3-12.2C39,8.7,30.3,0,19.5,0C8.7,0,0,8.7,0,19.5
			C0,30.3,8.7,39,19.5,39c4.4,0,8.4-1.4,11.6-3.9l9.6,9.6c1,1,2.6,1,3.5,0C45.3,43.8,45.3,42.2,44.3,41.2z M19.5,35
			C10.9,35,4,28.1,4,19.5C4,10.9,10.9,4,19.5,4C28.1,4,35,10.9,35,19.5C35,28.1,28.1,35,19.5,35z"/>
	</g>
</g>
</svg>
