<?xml version="1.0" encoding="utf-8"?>
<!-- Generator: Adobe Illustrator 19.2.1, SVG Export Plug-In . SVG Version: 6.00 Build 0)  -->
<svg version="1.1" id="Layer_1" xmlns="http://www.w3.org/2000/svg" xmlns:xlink="http://www.w3.org/1999/xlink" x="0px" y="0px"
	 viewBox="0 0 19 14.6" style="enable-background:new 0 0 19 14.6;" xml:space="preserve">
<style type="text/css">
	.st0{fill:#AEE33D;}
</style>
<g>
	<path class="st0" d="M18.7,3.7l-8.9,8.9l-1.7,1.7c-0.2,0.2-0.5,0.3-0.8,0.3c-0.3,0-0.6-0.1-0.8-0.3l-1.7-1.7L0.3,8.1
		C0.1,7.9,0,7.6,0,7.3s0.1-0.6,0.3-0.8L2,4.8c0.2-0.2,0.5-0.3,0.8-0.3c0.3,0,0.6,0.1,0.8,0.3l3.6,3.6l8.1-8.1
		C15.6,0.1,15.9,0,16.2,0c0.3,0,0.6,0.1,0.8,0.3L18.7,2C18.9,2.2,19,2.5,19,2.8C19,3.2,18.9,3.5,18.7,3.7z"/>
</g>
</svg>
